<svg width="141" height="37" viewBox="0 0 141 37" fill="none" xmlns="http://www.w3.org/2000/svg">
<path d="M134.363 15.0682C133.431 15.0682 132.543 15.2625 131.736 15.6111L128.963 9.18638C128.892 9.02277 128.768 8.90656 128.628 8.81811C128.505 8.73313 128.362 8.67242 128.201 8.67242H123.057C122.628 8.67242 122.279 9.02103 122.279 9.45116C122.279 9.88013 122.628 10.2287 123.057 10.2287H127.002C127.193 10.2391 127.593 10.3091 127.764 10.7057L128.077 11.4266L128.135 11.5625C128.192 11.7307 128.215 11.9955 127.786 11.9955H116.966C116.471 11.9955 116.237 11.7348 116.137 11.5723L116.074 11.4445V11.4428L115.754 10.8115C115.754 10.8115 115.754 10.8115 115.754 10.8109L115.751 10.8045L115.693 10.6889L115.686 10.6878L115.556 10.4536C115.527 10.3796 115.538 10.2588 115.931 10.2588H117.435C117.435 10.2588 118.318 10.3322 118.343 9.52227C118.355 9.10486 118.061 8.67589 117.669 8.67589C117.275 8.67589 112.379 8.67589 112.379 8.67589C112.379 8.67589 111.533 8.57761 111.484 9.46735C111.484 9.8651 111.814 10.2588 112.281 10.2588C112.452 10.2588 112.686 10.2571 112.912 10.2548C113.208 10.2628 113.715 10.3247 113.881 10.6473L113.949 10.7739C114.115 11.1 114.383 11.6255 114.708 12.262C114.731 12.3071 114.756 12.358 114.781 12.4042C114.843 12.569 114.89 12.8708 114.661 13.2616L113.271 15.6215C112.464 15.2711 111.573 15.074 110.636 15.074C106.977 15.074 104.009 18.0404 104.009 21.7005C104.009 25.3606 106.977 28.3275 110.636 28.3275C113.854 28.3275 116.534 26.0335 117.136 22.9932L120.47 23.2695C120.606 23.2811 120.732 23.2464 120.848 23.1961C120.995 23.1712 121.141 23.1221 121.26 23.0163L129.34 15.9192C129.451 15.8244 129.846 15.5267 130.006 15.8967L130.264 16.495C128.726 17.7085 127.736 19.584 127.736 21.6953C127.736 25.3542 130.702 28.3212 134.363 28.3212C138.021 28.3212 140.99 25.3542 140.99 21.6953C140.99 18.0352 138.022 15.0682 134.363 15.0682ZM110.636 27.0308C107.808 27.0308 105.514 24.7368 105.514 21.908C105.514 19.0793 107.808 16.7864 110.636 16.7864C111.257 16.7864 111.849 16.9026 112.4 17.105L109.985 21.2085C109.916 21.3253 109.888 21.4501 109.879 21.5744C109.877 21.5872 109.87 21.5953 109.87 21.6057C109.866 21.6583 109.881 21.7051 109.887 21.7548C109.892 21.786 109.889 21.8155 109.897 21.8462C109.974 22.1693 110.24 22.4243 110.587 22.4532L115.664 22.8735C115.214 25.238 113.136 27.0308 110.636 27.0308ZM112.77 21.057C112.768 21.0559 112.768 21.0559 112.766 21.0559C112 20.9928 112.487 20.1187 112.514 20.0707L113.8 17.8854C114.841 18.7052 115.556 19.9175 115.719 21.301L112.77 21.057ZM118.804 21.5554L117.25 21.4264C117.167 19.3909 116.169 17.5958 114.653 16.4378L115.28 15.3729C115.822 14.4519 116.295 15.3735 116.295 15.3735C117.319 17.3853 118.405 19.5181 119.038 20.768C119.038 20.7685 119.463 21.6097 118.804 21.5554ZM129.003 14.0328L121.795 20.3644C121.795 20.3656 121.795 20.3656 121.795 20.3656C120.948 21.1085 120.536 20.3055 120.53 20.2922L117.467 14.212C117.195 13.6709 117.704 13.598 117.933 13.5917H128.296C128.296 13.5917 129.009 13.5848 129.079 13.746V13.7472C129.124 13.8524 129.133 13.9195 129.003 14.0328ZM134.363 27.0244C131.536 27.0244 129.241 24.7304 129.241 21.9034C129.241 20.3858 129.903 19.0266 130.953 18.0883L132.244 21.0796C132.487 21.6444 132.747 21.693 132.809 21.6953H132.822H133.79C134.311 21.6953 134.132 21.1674 134.064 21.0021L132.409 17.1685C133.012 16.92 133.672 16.78 134.364 16.78C137.191 16.78 139.486 19.0735 139.486 21.9028C139.486 24.7304 137.19 27.0244 134.363 27.0244Z" fill="#4675F7"/>
<path d="M2.61523 9.43945H7.70605C9.99967 9.43945 11.6755 9.79915 12.7334 10.5186C13.7998 11.238 14.333 12.3848 14.333 13.959C14.333 14.6699 14.1934 15.3174 13.9141 15.9014C13.6432 16.4854 13.237 16.9762 12.6953 17.374C12.1621 17.7633 11.502 18.0299 10.7148 18.1738V18.2627C11.6543 18.4066 12.4287 18.6689 13.0381 19.0498C13.6559 19.4222 14.113 19.9173 14.4092 20.5352C14.7139 21.1445 14.8662 21.8724 14.8662 22.7188C14.8662 23.9375 14.5869 24.9362 14.0283 25.7148C13.4782 26.4935 12.7122 27.069 11.7305 27.4414C10.7487 27.8138 9.61458 28 8.32812 28H2.61523V9.43945ZM3.92285 17.6914H8.03613C9.77962 17.6914 11.0407 17.3867 11.8193 16.7773C12.598 16.168 12.9873 15.2666 12.9873 14.0732C12.9873 12.8376 12.5684 11.9489 11.7305 11.4072C10.8926 10.8656 9.55111 10.5947 7.70605 10.5947H3.92285V17.6914ZM3.92285 18.834V26.8447H8.29004C10.0081 26.8447 11.3031 26.4977 12.1748 25.8037C13.0465 25.1012 13.4824 24.056 13.4824 22.668C13.4824 21.7539 13.2793 21.0176 12.873 20.459C12.4668 19.8919 11.8574 19.4814 11.0449 19.2275C10.2409 18.9652 9.23796 18.834 8.03613 18.834H3.92285ZM17.1382 14.2002V28H15.8559V14.2002H17.1382ZM16.5161 9.09668C16.8377 9.09668 17.0747 9.19401 17.227 9.38867C17.3794 9.57487 17.4555 9.82878 17.4555 10.1504C17.4555 10.472 17.3794 10.7259 17.227 10.9121C17.0747 11.0983 16.8377 11.1914 16.5161 11.1914C16.2114 11.1914 15.9829 11.0983 15.8305 10.9121C15.6782 10.7259 15.602 10.472 15.602 10.1504C15.602 9.82878 15.6782 9.57487 15.8305 9.38867C15.9829 9.19401 16.2114 9.09668 16.5161 9.09668ZM20.2988 8.24609V18.2119C20.2988 18.8298 20.2903 19.4603 20.2734 20.1035C20.2649 20.7383 20.2522 21.373 20.2353 22.0078H20.2607C20.5061 21.7201 20.7601 21.4196 21.0224 21.1064C21.2933 20.7848 21.5599 20.4759 21.8222 20.1797L27.2812 14.2002H28.83L23.3838 20.1162L29.3125 28H27.7763L22.5078 20.9668L20.2988 23.29V28H19.0166V8.24609H20.2988ZM34.1108 13.9336C35.2872 13.9336 36.2648 14.2087 37.0434 14.7588C37.8305 15.3089 38.4145 16.0622 38.7954 17.0186C39.1847 17.9749 39.3793 19.071 39.3793 20.3066V21.2334H29.4135C29.4135 23.1292 29.8494 24.585 30.7211 25.6006C31.6013 26.6162 32.8582 27.124 34.4916 27.124C35.3465 27.124 36.087 27.0563 36.7133 26.9209C37.3481 26.777 38.0506 26.5358 38.8207 26.1973V27.3779C38.1437 27.6826 37.4666 27.9027 36.7895 28.0381C36.1124 28.182 35.3338 28.2539 34.4536 28.2539C33.0571 28.2539 31.8849 27.9661 30.937 27.3906C29.9975 26.8066 29.2866 25.9857 28.8041 24.9277C28.3302 23.8698 28.0932 22.6341 28.0932 21.2207C28.0932 19.8411 28.3217 18.6012 28.7787 17.501C29.2442 16.4007 29.9213 15.5332 30.81 14.8984C31.7071 14.2552 32.8074 13.9336 34.1108 13.9336ZM34.0981 15.0381C32.7778 15.0381 31.7071 15.4782 30.8862 16.3584C30.0737 17.2301 29.5955 18.4912 29.4516 20.1416H38.0463C38.0463 19.1344 37.9024 18.2458 37.6147 17.4756C37.3269 16.7054 36.8911 16.1087 36.3071 15.6855C35.7315 15.2539 34.9952 15.0381 34.0981 15.0381ZM49.9662 13.959C50.3301 13.959 50.6729 13.9801 50.9945 14.0225C51.3161 14.0648 51.6166 14.124 51.8959 14.2002L51.6928 15.3809C51.4135 15.3047 51.1299 15.2497 50.8422 15.2158C50.5544 15.1735 50.2455 15.1523 49.9154 15.1523C49.2637 15.1523 48.6798 15.2751 48.1635 15.5205C47.6557 15.766 47.224 16.1172 46.8686 16.5742C46.5131 17.0312 46.2423 17.5814 46.0561 18.2246C45.8699 18.8678 45.7768 19.5872 45.7768 20.3828V28H44.4818V14.2002H45.5863L45.7133 16.8027H45.7895C46.001 16.2695 46.2973 15.7913 46.6781 15.3682C47.0674 14.9365 47.5372 14.5938 48.0873 14.3398C48.6374 14.0859 49.2637 13.959 49.9662 13.959ZM57.1005 13.9336C58.2769 13.9336 59.2544 14.2087 60.0331 14.7588C60.8202 15.3089 61.4042 16.0622 61.785 17.0186C62.1744 17.9749 62.369 19.071 62.369 20.3066V21.2334H52.4032C52.4032 23.1292 52.8391 24.585 53.7108 25.6006C54.591 26.6162 55.8479 27.124 57.4813 27.124C58.3361 27.124 59.0767 27.0563 59.703 26.9209C60.3378 26.777 61.0402 26.5358 61.8104 26.1973V27.3779C61.1333 27.6826 60.4563 27.9027 59.7792 28.0381C59.1021 28.182 58.3234 28.2539 57.4432 28.2539C56.0468 28.2539 54.8746 27.9661 53.9266 27.3906C52.9872 26.8066 52.2762 25.9857 51.7938 24.9277C51.3199 23.8698 51.0829 22.6341 51.0829 21.2207C51.0829 19.8411 51.3114 18.6012 51.7684 17.501C52.2339 16.4007 52.911 15.5332 53.7997 14.8984C54.6968 14.2552 55.7971 13.9336 57.1005 13.9336ZM57.0878 15.0381C55.7675 15.0381 54.6968 15.4782 53.8759 16.3584C53.0634 17.2301 52.5852 18.4912 52.4413 20.1416H61.036C61.036 19.1344 60.8921 18.2458 60.6044 17.4756C60.3166 16.7054 59.8807 16.1087 59.2968 15.6855C58.7212 15.2539 57.9849 15.0381 57.0878 15.0381ZM69.516 13.9336C71.0648 13.9336 72.2539 14.3398 73.0834 15.1523C73.9128 15.9648 74.3275 17.2386 74.3275 18.9736V28H73.058V19.0498C73.058 17.6787 72.7448 16.6715 72.1185 16.0283C71.4922 15.3851 70.5824 15.0635 69.389 15.0635C67.874 15.0635 66.7145 15.5078 65.9105 16.3965C65.1149 17.2767 64.7171 18.6097 64.7171 20.3955V28H63.4349V14.2002H64.4759L64.6664 16.7139H64.7425C64.988 16.1976 65.3223 15.7321 65.7455 15.3174C66.1771 14.8942 66.7061 14.5599 67.3324 14.3145C67.9587 14.0605 68.6865 13.9336 69.516 13.9336ZM79.7987 27.1494C80.1965 27.1494 80.5646 27.1198 80.9032 27.0605C81.2502 27.0013 81.5549 26.9251 81.8172 26.832V27.8984C81.5464 27.9915 81.229 28.0719 80.8651 28.1396C80.5011 28.2158 80.0991 28.2539 79.659 28.2539C78.8804 28.2539 78.2329 28.11 77.7166 27.8223C77.2004 27.526 76.811 27.0817 76.5487 26.4893C76.2863 25.8883 76.1551 25.1266 76.1551 24.2041V15.2666H74.0985V14.5049L76.1424 14.1113L76.5868 10.8613H77.4373V14.2002H81.7411V15.2666H77.4373V24.1279C77.4373 25.1182 77.6193 25.8714 77.9832 26.3877C78.3556 26.8955 78.9608 27.1494 79.7987 27.1494ZM86.8695 13.959C88.3844 13.959 89.5185 14.3398 90.2718 15.1016C91.0251 15.8633 91.4017 17.0778 91.4017 18.7451V28H90.4114L90.1829 25.5879H90.1068C89.8105 26.1042 89.4508 26.5654 89.0277 26.9717C88.6045 27.3695 88.084 27.6826 87.4661 27.9111C86.8568 28.1396 86.112 28.2539 85.2318 28.2539C84.3431 28.2539 83.5814 28.1058 82.9466 27.8096C82.3203 27.5133 81.8336 27.0817 81.4866 26.5146C81.1481 25.9476 80.9788 25.2578 80.9788 24.4453C80.9788 23.0742 81.5459 22.0332 82.68 21.3223C83.8141 20.6029 85.4433 20.1966 87.5677 20.1035L90.1321 19.9766V18.9736C90.1321 17.5602 89.8529 16.5531 89.2943 15.9521C88.7357 15.3512 87.9105 15.0508 86.8187 15.0508C86.1077 15.0508 85.4222 15.1439 84.762 15.3301C84.1103 15.5078 83.446 15.766 82.7689 16.1045L82.3626 15.0381C83.0228 14.7249 83.7295 14.4668 84.4827 14.2637C85.2445 14.0605 86.04 13.959 86.8695 13.959ZM90.1195 20.9795L87.7073 21.0811C85.9554 21.1657 84.6224 21.4788 83.7083 22.0205C82.7943 22.5622 82.3372 23.3747 82.3372 24.458C82.3372 25.3298 82.6081 25.9984 83.1497 26.4639C83.6999 26.9294 84.4616 27.1621 85.4349 27.1621C86.9499 27.1621 88.1051 26.7305 88.9007 25.8672C89.7047 25.0039 90.111 23.8275 90.1195 22.3379V20.9795ZM94.41 28H93.115V8.24609H94.41V28Z" fill="#373646"/>
</svg>
